<?xml version="1.0" standalone="no"?>
<!DOCTYPE svg PUBLIC "-//W3C//DTD SVG 20010904//EN"
 "http://www.w3.org/TR/2001/REC-SVG-20010904/DTD/svg10.dtd">
<svg version="1.0" xmlns="http://www.w3.org/2000/svg"
 width="1024.000000pt" height="1024.000000pt" viewBox="0 0 1024.000000 1024.000000"
 preserveAspectRatio="xMidYMid meet">
<metadata>
Created by potrace 1.16, written by Peter Selinger 2001-2019
</metadata>
<g transform="translate(0.000000,1024.000000) scale(0.100000,-0.100000)"
fill="#000000" stroke="none">
<path d="M4775 7123 c-147 -19 -303 -125 -381 -258 -13 -23 -69 -169 -124
-325 -56 -157 -196 -550 -311 -875 -116 -324 -220 -617 -231 -650 -12 -33 -24
-63 -27 -67 -3 -3 -85 111 -181 254 -186 276 -235 333 -335 381 -155 77 -354
76 -499 0 -30 -16 -94 -71 -156 -134 -58 -58 -123 -118 -145 -132 -86 -56 -98
-57 -847 -57 -744 0 -728 1 -786 -53 -65 -60 -85 -174 -44 -253 26 -52 81
-100 129 -114 27 -8 291 -10 898 -8 804 3 864 5 915 22 70 23 143 60 200 100
25 18 50 35 56 39 7 4 27 -17 49 -51 161 -245 383 -556 419 -590 84 -78 226
-132 346 -132 200 0 388 123 477 310 23 47 78 191 123 320 46 129 147 413 225
630 79 217 175 489 215 603 40 114 76 204 80 200 4 -4 46 -136 93 -293 48
-157 143 -469 212 -695 69 -225 205 -669 301 -985 305 -999 290 -961 404
-1063 105 -94 221 -133 380 -125 211 11 369 130 451 341 17 45 75 206 129 357
54 151 134 379 179 505 45 127 102 286 126 354 24 68 42 128 39 133 -3 4 -1 8
4 8 9 0 25 40 26 65 1 6 3 12 6 15 3 3 18 38 33 79 23 65 25 72 8 57 -10 -10
-22 -33 -25 -52 -8 -38 -21 -44 -31 -15 -6 19 1 116 9 129 2 4 6 49 7 100 2
51 5 92 6 92 2 0 8 -10 13 -22 8 -19 9 -18 4 10 -3 20 -2 32 5 32 16 0 13 30
-5 65 -8 17 -13 41 -10 55 2 14 0 32 -6 40 -8 12 -9 10 -5 -6 2 -12 1 -28 -4
-35 -5 -9 -9 21 -10 76 -1 50 -2 97 -3 105 -2 8 -3 52 -4 98 -1 53 -6 81 -12
77 -6 -3 -10 -2 -10 4 0 5 4 11 9 13 17 6 18 118 1 118 -5 0 -7 -6 -4 -14 3
-8 1 -23 -5 -34 -7 -13 -7 -22 0 -29 7 -7 7 -17 -3 -32 -10 -17 -10 -25 0 -41
6 -11 12 -25 12 -32 0 -9 -3 -8 -10 2 -8 12 -10 12 -10 -5 -1 -20 -1 -20 -15
-1 -8 11 -15 25 -15 30 0 6 5 4 10 -4 8 -13 10 -12 10 3 0 9 -5 17 -11 17 -12
0 -9 169 3 176 4 3 8 -1 8 -8 0 -7 7 -2 16 10 8 12 19 20 24 17 5 -3 12 0 16
6 11 18 -41 3 -115 -33 -84 -40 -176 -132 -219 -218 -18 -36 -81 -204 -141
-375 -60 -170 -186 -526 -281 -790 -94 -264 -181 -508 -194 -543 -25 -70 -36
-80 -47 -42 -4 14 -83 275 -177 580 -233 760 -508 1661 -604 1980 -43 145 -91
287 -106 315 -38 71 -145 176 -218 213 -92 46 -212 68 -309 55z"/>
</g>
</svg>
